<svg xmlns="http://www.w3.org/2000/svg" xmlns:xlink="http://www.w3.org/1999/xlink" width="0" height="0" style="position:absolute">
	
		<symbol id="icon-right" viewBox="0 0 16 16">
			<path d="M6.471 12.471l4-4c0.261-0.261 0.261-0.683 0-0.943l-4-4c-0.261-0.261-0.683-0.261-0.943 0s-0.261 0.683 0 0.943l3.529 3.529-3.529 3.529c-0.261 0.261-0.261 0.683 0 0.943s0.683 0.261 0.943 0z"></path>
		</symbol>

		<symbol id="icon-book" viewBox="0 0 16 16">
			<path d="M8 3c0 0-2-2-8-2v12c6.063 0 8 2 8 2s1.938-2 8-2v-12c-6 0-8 2-8 2zM2 3c2.542 0.213 4.101 0.801 5 1.277v8.055c-0.899-0.475-2.458-1.063-5-1.277v-8.055zM14 11.055c-2.543 0.215-4.101 0.802-5 1.277v-8.055c0.899-0.477 2.457-1.064 5-1.277v8.055z"></path>
		</symbol>

		<symbol id="icon-prev" viewBox="0 0 16 16">
			<path d="M10.281 11.063l-0.938 0.938-4-4 4-4 0.938 0.938-3.063 3.063z"></path>
		</symbol>

		<symbol id="icon-next" viewBox="0 0 16 16">
			<path d="M5.719 11.063l3.063-3.063-3.063-3.063 0.938-0.938 4 4-4 4z"></path>
		</symbol>

		<symbol id="icon-eye" viewBox="0 0 16 16">
			<path d="M14.857 8.571c-0.848-1.313-2.009-2.438-3.402-3.152 0.357 0.607 0.545 1.304 0.545 2.009 0 2.205-1.795 4-4 4s-4-1.795-4-4c0-0.705 0.188-1.402 0.545-2.009-1.393 0.714-2.554 1.839-3.402 3.152 1.527 2.357 3.991 4 6.857 4s5.33-1.643 6.857-4zM8.429 5.143c0-0.232-0.196-0.429-0.429-0.429-1.491 0-2.714 1.223-2.714 2.714 0 0.232 0.196 0.429 0.429 0.429s0.429-0.196 0.429-0.429c0-1.018 0.839-1.857 1.857-1.857 0.232 0 0.429-0.196 0.429-0.429zM16 8.571c0 0.223-0.071 0.429-0.179 0.616-1.643 2.705-4.652 4.527-7.821 4.527s-6.179-1.83-7.821-4.527c-0.107-0.188-0.179-0.393-0.179-0.616s0.071-0.429 0.179-0.616c1.643-2.696 4.652-4.527 7.821-4.527s6.179 1.83 7.821 4.527c0.107 0.188 0.179 0.393 0.179 0.616z"></path>
		</symbol>

		<symbol id="icon-comments" viewBox="0 0 16 16">
			<path d="M12.571 6.857c0 2.527-2.813 4.571-6.286 4.571-0.545 0-1.071-0.054-1.571-0.143-0.741 0.527-1.58 0.911-2.482 1.143-0.241 0.063-0.5 0.107-0.768 0.143h-0.027c-0.134 0-0.259-0.107-0.286-0.259v0c-0.036-0.17 0.080-0.277 0.179-0.393 0.348-0.393 0.741-0.741 1.045-1.482-1.446-0.839-2.375-2.134-2.375-3.58 0-2.527 2.813-4.571 6.286-4.571s6.286 2.045 6.286 4.571zM16 9.143c0 1.455-0.929 2.741-2.375 3.58 0.304 0.741 0.696 1.089 1.045 1.482 0.098 0.116 0.214 0.223 0.179 0.393v0c-0.036 0.161-0.17 0.277-0.313 0.259-0.268-0.036-0.527-0.080-0.768-0.143-0.902-0.232-1.741-0.616-2.482-1.143-0.5 0.089-1.027 0.143-1.571 0.143-1.616 0-3.098-0.446-4.214-1.179 0.259 0.018 0.527 0.036 0.786 0.036 1.92 0 3.732-0.554 5.116-1.554 1.491-1.089 2.313-2.563 2.313-4.161 0-0.464-0.071-0.92-0.205-1.357 1.509 0.83 2.491 2.152 2.491 3.643z"></path>
		</symbol>
	
</svg>
