<svg xmlns="http://www.w3.org/2000/svg" xmlns:xlink="http://www.w3.org/1999/xlink" width="0" height="0" style="position:absolute">
	
		<symbol id="icon-right" viewBox="0 0 16 16">
			<path d="M6.471 12.471l4-4c0.261-0.261 0.261-0.683 0-0.943l-4-4c-0.261-0.261-0.683-0.261-0.943 0s-0.261 0.683 0 0.943l3.529 3.529-3.529 3.529c-0.261 0.261-0.261 0.683 0 0.943s0.683 0.261 0.943 0z"></path>
		</symbol>

		<symbol id="icon-book" viewBox="0 0 16 16">
			<path d="M8 3c0 0-2-2-8-2v12c6.063 0 8 2 8 2s1.938-2 8-2v-12c-6 0-8 2-8 2zM2 3c2.542 0.213 4.101 0.801 5 1.277v8.055c-0.899-0.475-2.458-1.063-5-1.277v-8.055zM14 11.055c-2.543 0.215-4.101 0.802-5 1.277v-8.055c0.899-0.477 2.457-1.064 5-1.277v8.055z"></path>
		</symbol>

		<symbol id="icon-prev" viewBox="0 0 16 16">
			<path d="M10.281 11.063l-0.938 0.938-4-4 4-4 0.938 0.938-3.063 3.063z"></path>
		</symbol>

		<symbol id="icon-next" viewBox="0 0 16 16">
			<path d="M5.719 11.063l3.063-3.063-3.063-3.063 0.938-0.938 4 4-4 4z"></path>
		</symbol>
	
</svg>
