<svg xmlns="http://www.w3.org/2000/svg" xmlns:xlink="http://www.w3.org/1999/xlink" width="0" height="0" style="position:absolute">
	
		<symbol id="icon-right" viewBox="0 0 16 16">
			<path d="M6.471 12.471l4-4c0.261-0.261 0.261-0.683 0-0.943l-4-4c-0.261-0.261-0.683-0.261-0.943 0s-0.261 0.683 0 0.943l3.529 3.529-3.529 3.529c-0.261 0.261-0.261 0.683 0 0.943s0.683 0.261 0.943 0z"></path>
		</symbol>

		<symbol id="icon-book" viewBox="0 0 16 16">
			<path d="M8 3c0 0-2-2-8-2v12c6.063 0 8 2 8 2s1.938-2 8-2v-12c-6 0-8 2-8 2zM2 3c2.542 0.213 4.101 0.801 5 1.277v8.055c-0.899-0.475-2.458-1.063-5-1.277v-8.055zM14 11.055c-2.543 0.215-4.101 0.802-5 1.277v-8.055c0.899-0.477 2.457-1.064 5-1.277v8.055z"></path>
		</symbol>

		<symbol id="icon-next" viewBox="0 0 11 16">
			<path d="M9.884 7.83l-6.625 6.625c-0.223 0.223-0.58 0.223-0.804 0l-1.482-1.482c-0.223-0.223-0.223-0.58 0-0.804l4.741-4.741-4.741-4.741c-0.223-0.223-0.223-0.58 0-0.804l1.482-1.482c0.223-0.223 0.58-0.223 0.804 0l6.625 6.625c0.223 0.223 0.223 0.58 0 0.804z"></path>
		</symbol>

		<symbol id="icon-prev" viewBox="0 0 12 16">
			<path d="M10.455 2.688l-4.741 4.741 4.741 4.741c0.223 0.223 0.223 0.58 0 0.804l-1.482 1.482c-0.223 0.223-0.58 0.223-0.804 0l-6.625-6.625c-0.223-0.223-0.223-0.58 0-0.804l6.625-6.625c0.223-0.223 0.58-0.223 0.804 0l1.482 1.482c0.223 0.223 0.223 0.58 0 0.804z"></path>
		</symbol>

		<symbol id="icon-eye" viewBox="0 0 16 16">
			<path d="M14.857 8.571c-0.848-1.313-2.009-2.438-3.402-3.152 0.357 0.607 0.545 1.304 0.545 2.009 0 2.205-1.795 4-4 4s-4-1.795-4-4c0-0.705 0.188-1.402 0.545-2.009-1.393 0.714-2.554 1.839-3.402 3.152 1.527 2.357 3.991 4 6.857 4s5.33-1.643 6.857-4zM8.429 5.143c0-0.232-0.196-0.429-0.429-0.429-1.491 0-2.714 1.223-2.714 2.714 0 0.232 0.196 0.429 0.429 0.429s0.429-0.196 0.429-0.429c0-1.018 0.839-1.857 1.857-1.857 0.232 0 0.429-0.196 0.429-0.429zM16 8.571c0 0.223-0.071 0.429-0.179 0.616-1.643 2.705-4.652 4.527-7.821 4.527s-6.179-1.83-7.821-4.527c-0.107-0.188-0.179-0.393-0.179-0.616s0.071-0.429 0.179-0.616c1.643-2.696 4.652-4.527 7.821-4.527s6.179 1.83 7.821 4.527c0.107 0.188 0.179 0.393 0.179 0.616z"></path>
		</symbol>

		<symbol id="icon-comments" viewBox="0 0 16 16">
			<path d="M12.571 6.857c0 2.527-2.813 4.571-6.286 4.571-0.545 0-1.071-0.054-1.571-0.143-0.741 0.527-1.58 0.911-2.482 1.143-0.241 0.063-0.5 0.107-0.768 0.143h-0.027c-0.134 0-0.259-0.107-0.286-0.259v0c-0.036-0.17 0.080-0.277 0.179-0.393 0.348-0.393 0.741-0.741 1.045-1.482-1.446-0.839-2.375-2.134-2.375-3.58 0-2.527 2.813-4.571 6.286-4.571s6.286 2.045 6.286 4.571zM16 9.143c0 1.455-0.929 2.741-2.375 3.58 0.304 0.741 0.696 1.089 1.045 1.482 0.098 0.116 0.214 0.223 0.179 0.393v0c-0.036 0.161-0.17 0.277-0.313 0.259-0.268-0.036-0.527-0.080-0.768-0.143-0.902-0.232-1.741-0.616-2.482-1.143-0.5 0.089-1.027 0.143-1.571 0.143-1.616 0-3.098-0.446-4.214-1.179 0.259 0.018 0.527 0.036 0.786 0.036 1.92 0 3.732-0.554 5.116-1.554 1.491-1.089 2.313-2.563 2.313-4.161 0-0.464-0.071-0.92-0.205-1.357 1.509 0.83 2.491 2.152 2.491 3.643z"></path>
		</symbol>

		<symbol id="icon-checkmark" viewBox="0 0 16 16">
			<path d="M14.499 4.266l-1.067-1.067c-0.197-0.196-0.515-0.196-0.711 0l-6.397 6.397-3.043-3.065c-0.196-0.197-0.514-0.197-0.712 0l-1.067 1.067c-0.197 0.197-0.197 0.515 0 0.711l4.462 4.492c0.197 0.197 0.515 0.197 0.712 0l7.824-7.824c0.197-0.196 0.197-0.515 0-0.712z"></path>
		</symbol>

		<symbol id="icon-cancel" viewBox="0 0 16 16">
			<path d="M9.793 8.001l3.048 3.048c0.198 0.198 0.198 0.52 0 0.717l-1.075 1.075c-0.198 0.198-0.519 0.198-0.717 0l-3.049-3.048-3.049 3.048c-0.198 0.198-0.519 0.198-0.717 0l-1.076-1.075c-0.198-0.198-0.198-0.519 0-0.717l3.049-3.048-3.049-3.049c-0.198-0.198-0.198-0.519 0-0.718l1.076-1.075c0.198-0.198 0.519-0.198 0.717 0l3.048 3.048 3.048-3.049c0.198-0.198 0.519-0.198 0.717 0l1.075 1.076c0.198 0.198 0.198 0.519 0 0.718l-3.048 3.048z"></path>
		</symbol>

		<symbol id="icon-cart" viewBox="0 0 16 16">
			<path d="M10.4 13.6c0 0.883 0.715 1.6 1.6 1.6 0.883 0 1.6-0.717 1.6-1.6 0-0.885-0.717-1.6-1.6-1.6-0.885 0-1.6 0.715-1.6 1.6zM2.4 13.6c0 0.883 0.716 1.6 1.6 1.6 0.882 0 1.6-0.717 1.6-1.6 0-0.885-0.718-1.6-1.6-1.6-0.884 0-1.6 0.715-1.6 1.6zM5.238 9.738l8.854-2.53c0.169-0.049 0.308-0.231 0.308-0.408v-4.4h-11.2v-1.28c0-0.176-0.145-0.32-0.319-0.32h-2.562c-0.175 0-0.319 0.144-0.319 0.32v1.28h1.6l1.528 7.166 0.072 0.754v1.319c0 0.175 0.144 0.32 0.32 0.32h10.56c0.176 0 0.32-0.146 0.32-0.32v-1.239h-8.998c-0.92 0-0.939-0.441-0.164-0.662z"></path>
		</symbol>

		<symbol id="icon-heart" viewBox="0 0 16 16">
			<path d="M8 14.857c-0.143 0-0.286-0.054-0.393-0.161l-5.571-5.375c-0.071-0.063-2.036-1.857-2.036-4 0-2.616 1.598-4.179 4.268-4.179 1.563 0 3.027 1.232 3.732 1.929 0.705-0.696 2.17-1.929 3.732-1.929 2.67 0 4.268 1.563 4.268 4.179 0 2.143-1.964 3.938-2.045 4.018l-5.563 5.357c-0.107 0.107-0.25 0.161-0.393 0.161z"></path>
		</symbol>

		<symbol id="icon-facebook" viewBox="0 0 9 16">
			<path d="M8.563 0.107v2.357h-1.402c-1.098 0-1.304 0.527-1.304 1.286v1.688h2.616l-0.348 2.643h-2.268v6.777h-2.732v-6.777h-2.277v-2.643h2.277v-1.946c0-2.259 1.384-3.491 3.402-3.491 0.964 0 1.795 0.071 2.036 0.107z"></path>
		</symbol>

		<symbol id="icon-vk" viewBox="0 0 17 16">
			<path d="M17.116 4.643c0.134 0.366-0.286 1.223-1.339 2.625-1.732 2.304-1.92 2.089-0.491 3.42 1.375 1.277 1.661 1.893 1.705 1.973 0 0 0.571 1-0.634 1.009l-2.286 0.036c-0.491 0.098-1.143-0.348-1.143-0.348-0.857-0.589-1.661-2.116-2.286-1.92 0 0-0.643 0.205-0.625 1.58 0.009 0.295-0.134 0.455-0.134 0.455s-0.161 0.17-0.473 0.196h-1.027c-2.259 0.143-4.25-1.938-4.25-1.938s-2.179-2.25-4.089-6.741c-0.125-0.295 0.009-0.438 0.009-0.438s0.134-0.17 0.509-0.17l2.446-0.018c0.232 0.036 0.393 0.161 0.393 0.161s0.143 0.098 0.214 0.286c0.402 1 0.92 1.911 0.92 1.911 0.893 1.839 1.5 2.152 1.848 1.964 0 0 0.455-0.277 0.357-2.5-0.036-0.804-0.259-1.17-0.259-1.17-0.205-0.277-0.589-0.357-0.759-0.384-0.134-0.018 0.089-0.339 0.384-0.482 0.438-0.214 1.214-0.223 2.134-0.214 0.723 0.009 0.929 0.054 1.205 0.116 0.848 0.205 0.563 0.991 0.563 2.884 0 0.607-0.116 1.455 0.321 1.732 0.188 0.125 0.652 0.018 1.795-1.929 0 0 0.536-0.929 0.955-2.009 0.071-0.196 0.223-0.277 0.223-0.277s0.143-0.080 0.339-0.054l2.571-0.018c0.777-0.098 0.902 0.259 0.902 0.259z"></path>
		</symbol>

		<symbol id="icon-instagram" viewBox="0 0 14 16">
			<path d="M9.143 8c0-1.259-1.027-2.286-2.286-2.286s-2.286 1.027-2.286 2.286 1.027 2.286 2.286 2.286 2.286-1.027 2.286-2.286zM10.375 8c0 1.946-1.571 3.518-3.518 3.518s-3.518-1.571-3.518-3.518 1.571-3.518 3.518-3.518 3.518 1.571 3.518 3.518zM11.339 4.339c0 0.455-0.366 0.821-0.821 0.821s-0.821-0.366-0.821-0.821 0.366-0.821 0.821-0.821 0.821 0.366 0.821 0.821zM6.857 2.375c-1 0-3.143-0.080-4.045 0.277-0.313 0.125-0.545 0.277-0.786 0.518s-0.393 0.473-0.518 0.786c-0.357 0.902-0.277 3.045-0.277 4.045s-0.080 3.143 0.277 4.045c0.125 0.313 0.277 0.545 0.518 0.786s0.473 0.393 0.786 0.518c0.902 0.357 3.045 0.277 4.045 0.277s3.143 0.080 4.045-0.277c0.313-0.125 0.545-0.277 0.786-0.518s0.393-0.473 0.518-0.786c0.357-0.902 0.277-3.045 0.277-4.045s0.080-3.143-0.277-4.045c-0.125-0.313-0.277-0.545-0.518-0.786s-0.473-0.393-0.786-0.518c-0.902-0.357-3.045-0.277-4.045-0.277zM13.714 8c0 0.946 0.009 1.884-0.045 2.83-0.054 1.098-0.304 2.071-1.107 2.875s-1.777 1.054-2.875 1.107c-0.946 0.054-1.884 0.045-2.83 0.045s-1.884 0.009-2.83-0.045c-1.098-0.054-2.071-0.304-2.875-1.107s-1.054-1.777-1.107-2.875c-0.054-0.946-0.045-1.884-0.045-2.83s-0.009-1.884 0.045-2.83c0.054-1.098 0.304-2.071 1.107-2.875s1.777-1.054 2.875-1.107c0.946-0.054 1.884-0.045 2.83-0.045s1.884-0.009 2.83 0.045c1.098 0.054 2.071 0.304 2.875 1.107s1.054 1.777 1.107 2.875c0.054 0.946 0.045 1.884 0.045 2.83z"></path>
		</symbol>

		<symbol id="icon-twitter" viewBox="0 0 15 16">
			<path d="M14.464 3.643c-0.393 0.571-0.884 1.080-1.446 1.491 0.009 0.125 0.009 0.25 0.009 0.375 0 3.813-2.902 8.205-8.205 8.205-1.634 0-3.152-0.473-4.429-1.295 0.232 0.027 0.455 0.036 0.696 0.036 1.348 0 2.589-0.455 3.58-1.232-1.268-0.027-2.33-0.857-2.696-2 0.179 0.027 0.357 0.045 0.545 0.045 0.259 0 0.518-0.036 0.759-0.098-1.321-0.268-2.313-1.429-2.313-2.83v-0.036c0.384 0.214 0.83 0.348 1.304 0.366-0.777-0.518-1.286-1.402-1.286-2.402 0-0.536 0.143-1.027 0.393-1.455 1.42 1.75 3.554 2.893 5.946 3.018-0.045-0.214-0.071-0.438-0.071-0.661 0-1.589 1.286-2.884 2.884-2.884 0.83 0 1.58 0.348 2.107 0.911 0.652-0.125 1.277-0.366 1.83-0.696-0.214 0.67-0.67 1.232-1.268 1.589 0.58-0.063 1.143-0.223 1.661-0.446z"></path>
		</symbol>

		<symbol id="icon-clock" viewBox="0 0 14 16">
			<path d="M8 4.857v4c0 0.161-0.125 0.286-0.286 0.286h-2.857c-0.161 0-0.286-0.125-0.286-0.286v-0.571c0-0.161 0.125-0.286 0.286-0.286h2v-3.143c0-0.161 0.125-0.286 0.286-0.286h0.571c0.161 0 0.286 0.125 0.286 0.286zM11.714 8c0-2.679-2.179-4.857-4.857-4.857s-4.857 2.179-4.857 4.857 2.179 4.857 4.857 4.857 4.857-2.179 4.857-4.857zM13.714 8c0 3.786-3.071 6.857-6.857 6.857s-6.857-3.071-6.857-6.857 3.071-6.857 6.857-6.857 6.857 3.071 6.857 6.857z"></path>
		</symbol>

		<symbol id="icon-phone" viewBox="0 0 13 16">
			<path d="M12.571 11.071c0 0.321-0.143 0.946-0.277 1.241-0.188 0.438-0.688 0.723-1.089 0.946-0.527 0.286-1.063 0.455-1.661 0.455-0.83 0-1.58-0.339-2.339-0.616-0.545-0.196-1.071-0.438-1.563-0.741-1.518-0.938-3.348-2.768-4.286-4.286-0.304-0.491-0.545-1.018-0.741-1.563-0.277-0.759-0.616-1.509-0.616-2.339 0-0.598 0.17-1.134 0.455-1.661 0.223-0.402 0.509-0.902 0.946-1.089 0.295-0.134 0.92-0.277 1.241-0.277 0.063 0 0.125 0 0.188 0.027 0.188 0.063 0.384 0.5 0.473 0.679 0.286 0.509 0.563 1.027 0.857 1.527 0.143 0.232 0.411 0.518 0.411 0.795 0 0.545-1.616 1.339-1.616 1.821 0 0.241 0.223 0.554 0.348 0.768 0.902 1.625 2.027 2.75 3.652 3.652 0.214 0.125 0.527 0.348 0.768 0.348 0.482 0 1.277-1.616 1.821-1.616 0.277 0 0.563 0.268 0.795 0.411 0.5 0.295 1.018 0.571 1.527 0.857 0.179 0.089 0.616 0.286 0.679 0.473 0.027 0.063 0.027 0.125 0.027 0.188z"></path>
		</symbol>

		<symbol id="icon-star" viewBox="0 0 26 28">
			<path d="M26 10.109c0 0.281-0.203 0.547-0.406 0.75l-5.672 5.531 1.344 7.812c0.016 0.109 0.016 0.203 0.016 0.313 0 0.406-0.187 0.781-0.641 0.781-0.219 0-0.438-0.078-0.625-0.187l-7.016-3.687-7.016 3.687c-0.203 0.109-0.406 0.187-0.625 0.187-0.453 0-0.656-0.375-0.656-0.781 0-0.109 0.016-0.203 0.031-0.313l1.344-7.812-5.688-5.531c-0.187-0.203-0.391-0.469-0.391-0.75 0-0.469 0.484-0.656 0.875-0.719l7.844-1.141 3.516-7.109c0.141-0.297 0.406-0.641 0.766-0.641s0.625 0.344 0.766 0.641l3.516 7.109 7.844 1.141c0.375 0.063 0.875 0.25 0.875 0.719z"></path>
		</symbol>
	
</svg>
