<svg width="34" height="34" xmlns="http://www.w3.org/2000/svg" version="1.1">

 <g>
  <title>Layer 1</title>
  <path stroke="null" id="svg_1" d="m31.44987,8.32146l1.84966,-2.77255c0.92111,-1.38256 0.73541,-3.2334 -0.43827,-4.40783c-1.17368,-1.17443 -3.03076,-1.36026 -4.405,-0.43855l-2.77077,1.85084c-0.23028,0.1561 -0.43827,0.32706 -0.63141,0.52032l-3.28333,3.28543l-7.12378,-2.11844l0.57198,-0.57235l-2.94162,-2.94351l-2.16907,2.17047l-3.88502,-1.15956l-2.36221,2.34143l0.87654,0.87711l10.80823,7.6115l-3.32047,3.33003c-1.02511,1.02577 -1.87937,2.2002 -2.57021,3.47126l-7.25749,-1.2116l-2.31764,2.32656l0.8914,0.89197l5.89067,3.53816l-0.7874,1.57582l1.44853,1.44946l1.57481,-0.78791l3.49875,5.83499l0.92854,0.95887l2.31764,-2.31913l-1.21082,-7.26215c1.27767,-0.68385 2.44392,-1.53865 3.46903,-2.57186l3.3279,-3.33003l7.57691,10.77801l0.90626,0.92171l2.35478,-2.3563l-1.15882,-3.88752l2.16907,-2.17047l-2.94162,-2.94351l-0.57198,0.57235l-2.11708,-7.12835l3.28333,-3.28543c0.19314,-0.20069 0.36399,-0.40882 0.51998,-0.63925zm-19.17997,-5.92419l1.26282,1.26363l-0.18571,0.18583l-1.94622,-0.57978l0.86912,-0.86967zm-6.72265,1.67245l1.00283,-1.00347l14.25498,4.23687l-2.74106,2.74282l-6.7895,-4.32607l-0.63884,1.00347l6.56665,4.17741l-0.80226,0.80278l-10.8528,-7.6338zm1.84966,19.77207l-5.62325,-3.37463l1.03254,-1.0332l6.27695,1.04807l-1.68623,3.35976zm6.14324,8.39941l-3.37247,-5.62686l3.35761,-1.67988l1.0474,6.28098l-1.03254,1.02577zm16.79547,-11.75918l1.26282,1.26363l-0.86912,0.86967l-0.57941,-1.94747l0.18571,-0.18583zm0.58684,6.97225l-1.00283,1.00347l-7.63633,-10.85234l0.80226,-0.80278l4.17473,6.57087l1.00283,-0.63925l-4.32329,-6.79386l2.74106,-2.74282l4.24158,14.2567zm-0.8394,-19.34095l-12.82131,12.82954c-1.03997,1.04064 -2.23593,1.90288 -3.55075,2.56442l-5.9501,2.98068l-0.23771,-0.23786l2.97876,-5.95392c0.66112,-1.31566 1.52281,-2.51239 2.56278,-3.55303l12.82131,-12.83698c0.14114,-0.14123 0.28971,-0.26016 0.45313,-0.37166l2.77077,-1.85084c0.91369,-0.60951 2.13193,-0.49059 2.91191,0.28989s0.8914,1.99951 0.28971,2.91378l-1.84966,2.77255c-0.11143,0.16353 -0.23771,0.31219 -0.37885,0.45342z" fill="#282828"/>
 </g>
</svg>