<svg version="1.1" xmlns="http://www.w3.org/2000/svg" viewBox="0 0 496 496">
	<path fill="#282828" d="M442.8,126.4l24.9-37.3c12.4-18.6,9.9-43.5-5.9-59.3c-15.8-15.8-40.8-18.3-59.3-5.9l-37.3,24.9c-3.1,2.1-5.9,4.4-8.5,7l-44.2,44.2l-95.9-28.5l7.7-7.7l-39.6-39.6l-29.2,29.2l-52.3-15.6L71.4,69.3l11.8,11.8l145.5,102.4L184,228.3c-13.8,13.8-25.3,29.6-34.6,46.7l-97.7-16.3L20.5,290l12,12l79.3,47.6l-10.6,21.2l19.5,19.5l21.2-10.6l47.1,78.5l12.5,12.9l31.2-31.2l-16.3-97.7c17.2-9.2,32.9-20.7,46.7-34.6l44.8-44.8l102,145l12.2,12.4l31.7-31.7l-15.6-52.3l29.2-29.2l-39.6-39.6l-7.7,7.7l-28.5-95.9l44.2-44.2C438.4,132.3,440.7,129.5,442.8,126.4z M184.6,46.7l17,17l-2.5,2.5l-26.2-7.8L184.6,46.7z M94.1,69.2l13.5-13.5l191.9,57l-36.9,36.9l-91.4-58.2l-8.6,13.5l88.4,56.2l-10.8,10.8L94.1,69.2z M119,335.2l-75.7-45.4l13.9-13.9l84.5,14.1L119,335.2z M201.7,448.2l-45.4-75.7l45.2-22.6l14.1,84.5L201.7,448.2z M427.8,290l17,17l-11.7,11.7l-7.8-26.2L427.8,290z M435.7,383.8l-13.5,13.5L319.4,251.3l10.8-10.8l56.2,88.4l13.5-8.6l-58.2-91.4l36.9-36.9L435.7,383.8z M424.4,123.6L251.8,296.2c-14,14-30.1,25.6-47.8,34.5l-80.1,40.1l-3.2-3.2l40.1-80.1c8.9-17.7,20.5-33.8,34.5-47.8L367.9,67c1.9-1.9,3.9-3.5,6.1-5l37.3-24.9c12.3-8.2,28.7-6.6,39.2,3.9s12,26.9,3.9,39.2l-24.9,37.3C428,119.7,426.3,121.7,424.4,123.6z"/>
</svg>