<svg width="56" height="34" xmlns="http://www.w3.org/2000/svg" version="1.1">
   <path stroke="null" d="m55.00629,29.31011a0.90035,0.99817 0 0 0 0.90035,-0.99817l0,-10.12484a0.89932,0.99703 0 0 0 -0.15743,-0.56354l-6.21655,-10.07635a0.89984,0.9976 0 0 0 -0.74292,-0.43463l-7.97455,0l0,-6.03634a0.90035,0.99817 0 0 0 -0.90035,-0.99817l-31.2124,0a0.90035,0.99817 0 0 0 -0.90035,0.99817l0,5.46596l-6.81696,0a0.90035,0.99817 0 0 0 0,1.99633l6.81696,0l0,1.55657l-2.87238,0a0.90035,0.99817 0 0 0 0,1.99633l2.87238,0l0,1.55429l-6.81696,0a0.90035,0.99817 0 0 0 0,1.99633l6.81696,0l0,1.55657l-2.87238,0a0.90035,0.99817 0 0 0 0,1.99633l2.87238,0l0,9.11697a0.90035,0.99817 0 0 0 0.90035,0.99817l3.56746,0a5.05947,5.60913 0 0 0 1.1221,2.63801l-12.40686,0a0.90035,0.99817 0 0 0 0,1.99633l54.02117,0a0.90035,0.99817 0 0 0 0,-1.99633l-3.67241,0a5.05947,5.60913 0 0 0 1.1221,-2.63801l2.55031,0zm-6.69142,-20.20119l5.79107,9.38505l0,8.81981l-1.64996,0a5.07542,5.62681 0 0 0 -9.99186,0l-1.64893,0l0,-18.20486l7.49968,0zm-26.05364,20.20119l20.2034,0a5.05947,5.60913 0 0 0 1.12004,2.63801l-22.44554,0a5.05947,5.60913 0 0 0 1.1221,-2.63801zm-12.65845,-10.11286l6.13115,0a0.90035,0.99817 0 0 0 0,-1.99633l-6.13115,0l0,-1.55885l2.18657,0a0.90035,0.99817 0 0 0 0,-1.99633l-2.18657,0l0,-1.55429l6.13115,0a0.90035,0.99817 0 0 0 0,-1.99633l-6.13115,0l0,-1.55657l2.18657,0a0.90035,0.99817 0 0 0 0,-1.99633l-2.18657,0l0,-4.4678l29.4117,0l0,25.23937l-16.75325,0a5.07542,5.62681 0 0 0 -9.99186,0l-2.66659,0l0,-8.11652zm4.38292,9.11412a3.27986,3.63618 0 1 1 3.27986,3.63618a3.28346,3.64017 0 0 1 -3.27986,-3.63561l0,-0.00057zm30.19475,0a3.27986,3.63618 0 1 1 3.27986,3.63618a3.28346,3.64017 0 0 1 -3.27986,-3.63561l0,-0.00057z" fill="#282828"/>
   <path stroke="null" d="m42.72291,18.54416l8.61766,0a0.90035,0.99817 0 0 0 0.7352,-1.57482l-4.09429,-6.41679a0.90035,0.99817 0 0 0 -0.7352,-0.42151l-4.52337,0a0.90035,0.99817 0 0 0 -0.90035,0.99817l0,6.41679a0.90035,0.99817 0 0 0 0.90035,0.99817zm0.90035,-6.41679l3.15741,0l2.8199,4.42045l-5.97731,0l0,-4.42045z" fill="#282828"/>
</svg>