<svg  version="1.1" xmlns="http://www.w3.org/2000/svg" viewBox="0 0 128 128">
    <path fill="#282828" d="m116.5 85.563a1.75 1.75 0 0 0 1.75-1.75v-17.751a1.748 1.748 0 0 0 -.306-.988l-12.083-17.666a1.749 1.749 0 0 0 -1.444-.762h-15.5v-10.583a1.75 1.75 0 0 0 -1.75-1.75h-60.667a1.75 1.75 0 0 0 -1.75 1.75v9.583h-13.25a1.75 1.75 0 0 0 0 3.5h13.25v2.729h-5.583a1.75 1.75 0 0 0 0 3.5h5.583v2.725h-13.25a1.75 1.75 0 0 0 0 3.5h13.25v2.729h-5.583a1.75 1.75 0 0 0 0 3.5h5.583v15.984a1.75 1.75 0 0 0 1.75 1.75h6.934a9.834 9.834 0 0 0 2.181 4.625h-24.115a1.75 1.75 0 0 0 0 3.5h105a1.75 1.75 0 0 0 0-3.5h-7.138a9.834 9.834 0 0 0 2.181-4.625zm-13.006-35.417 11.256 16.454v15.463h-3.207a9.865 9.865 0 0 0 -19.421 0h-3.205v-31.917zm-50.64 35.417h39.269a9.834 9.834 0 0 0 2.177 4.625h-43.627a9.834 9.834 0 0 0 2.181-4.625zm-24.604-17.73h11.917a1.75 1.75 0 0 0 0-3.5h-11.917v-2.733h4.25a1.75 1.75 0 0 0 0-3.5h-4.25v-2.725h11.917a1.75 1.75 0 0 0 0-3.5h-11.917v-2.729h4.25a1.75 1.75 0 0 0 0-3.5h-4.25v-7.833h57.167v44.25h-32.563a9.865 9.865 0 0 0 -19.421 0h-5.183zm8.519 15.979a6.375 6.375 0 1 1 6.375 6.375 6.382 6.382 0 0 1 -6.375-6.374zm58.689 0a6.375 6.375 0 1 1 6.375 6.375 6.382 6.382 0 0 1 -6.375-6.374z"/>
    <path fill="#282828" d="m92.625 66.688h16.75a1.75 1.75 0 0 0 1.429-2.761l-7.958-11.25a1.75 1.75 0 0 0 -1.429-.739h-8.792a1.75 1.75 0 0 0 -1.75 1.75v11.25a1.75 1.75 0 0 0 1.75 1.75zm1.75-11.25h6.137l5.481 7.75h-11.618z"/>
</svg>