<svg width="39" height="34" xmlns="http://www.w3.org/2000/svg" version="1.1">
  <path stroke="null" id="svg_1" d="m35.45521,3.5564c-4.39119,-4.33317 -11.41299,-4.42354 -15.96149,-0.34704c-4.54971,-4.07651 -11.56908,-3.98613 -15.9627,0.34704c-4.52672,4.46331 -4.52672,11.69932 0,16.16504c1.29352,1.27609 13.37445,13.18387 13.37445,13.18387c1.43146,1.41226 3.74625,1.41226 5.1765,0c0,0 13.22803,-13.04048 13.37445,-13.18387c4.52793,-4.46572 4.52793,-11.70173 -0.00121,-16.16504zm-1.72429,14.46358l-13.37445,13.18387c-0.47554,0.47115 -1.25117,0.47115 -1.72429,0l-13.37445,-13.18387c-3.56958,-3.51859 -3.56958,-9.24353 0,-12.76212c3.44132,-3.39207 8.97357,-3.51136 12.59519,-0.26751l1.6408,1.4701l1.63959,-1.4701c3.62283,-3.24385 9.15508,-3.12576 12.5964,0.26751c3.56958,3.51739 3.56958,9.24233 0.00121,12.76212zm-22.40368,-11.76921c0.33518,0 0.60501,0.26992 0.60501,0.6025s-0.27105,0.6025 -0.60501,0.6025l-0.00121,0c-2.17079,0 -3.93138,1.75327 -3.93138,3.91504l0,0.0012c0,0.33258 -0.27105,0.6025 -0.60501,0.6025s-0.60501,-0.26992 -0.60501,-0.6025l0,0c0,-2.82692 2.30026,-5.11762 5.13778,-5.12003c0.00242,0 0.00242,-0.0012 0.00484,-0.0012z" fill="#282828"/>
</svg>