<svg width="38" height="34" xmlns="http://www.w3.org/2000/svg" version="1.1">
  <path stroke="null" id="svg_1" d="m19.02777,20.81648c0,-1.20604 1.06016,-2.18374 2.36791,-2.18374s2.36791,0.9777 2.36791,2.18374c0,1.20604 -1.06016,2.18374 -2.36791,2.18374s-2.36791,-0.9777 -2.36791,-2.18374zm15.39263,-7.64309c-0.00118,0 -0.00118,0 0,0l-0.00118,-6.55122l0,-3.27561c0,-1.80923 -1.59124,-3.27561 -3.55187,-3.27561l-24.27112,0c-3.59094,0 -6.51176,2.69474 -6.51176,6.00529l0,21.8374c0,3.31055 2.92082,6.00529 6.51176,6.00529l21.31123,0c3.58976,0 6.51176,-2.69474 6.51176,-6.00529l0,-1.63781c0,0 0,0 0.00118,0c4.73346,-3.2767 4.73346,-9.82574 0,-13.10244zm-27.82418,-10.9187l24.27112,0c0.65236,0 1.18396,0.48916 1.18396,1.09187l0,6.75213c-0.37176,-0.12229 -0.7672,-0.2009 -1.18396,-0.2009l-0.00118,0l0,-5.45935c0,-0.6038 -0.53041,-1.09187 -1.18396,-1.09187l-24.8631,0c-0.65354,0 -1.18396,0.48807 -1.18396,1.09187l0,4.30524c-0.7305,-0.68897 -1.18277,-1.62798 -1.18277,-2.66744c0,-2.11059 1.85408,-3.82155 4.14385,-3.82155zm23.08598,3.27561l-24.8631,0l0,-1.09187l24.8631,0l0,1.09187zm0,1.09187l0,1.09187l-24.8631,0l0,-1.09187l24.8631,0zm0,2.18374l0,1.09187l-23.08598,0c-0.63934,0 -1.23605,-0.14413 -1.77594,-0.38215l0,-0.70972l24.86192,0zm2.3691,19.10773c0,2.11059 -1.85526,3.82155 -4.14385,3.82155l-21.31123,0c-2.28977,0 -4.14385,-1.71096 -4.14385,-3.82155l0,-17.20897c1.12594,0.8593 2.57037,1.37685 4.14385,1.37685l24.27112,0c0.65236,0 1.18396,0.48916 1.18396,1.09187l0,2.18374l-10.65561,0c-3.27009,0 -5.91979,2.44361 -5.91979,5.45935s2.65088,5.45935 5.91979,5.45935l10.65561,0l0,1.63781zm1.51191,-3.82155l-12.16753,0c-1.95827,0 -3.55187,-1.46966 -3.55187,-3.27561s1.59361,-3.27561 3.55187,-3.27561l10.65561,0c0.7305,-0.00873 1.45508,-0.3352 1.8967,-0.87786c0.12313,-0.15286 0.21903,-0.32429 0.29599,-0.50335c0.01066,-0.02402 0.0296,-0.04258 0.03907,-0.0677c0.85127,1.02963 1.32011,2.29184 1.32011,3.63265c0,1.6793 -0.73524,3.2374 -2.03996,4.36748z" fill="#282828"/>
</svg>